<?xml version="1.0" encoding="iso-8859-1"?>
<svg version="1.1" xmlns="http://www.w3.org/2000/svg" xmlns:xlink="http://www.w3.org/1999/xlink" x="0px" y="0px"
	 viewBox="0 0 512 512" style="enable-background:new 0 0 512 512;" fill="currentColor" xml:space="preserve">
<g>
	<g>
		<path d="M460.736,247.949c-0.113-0.04-0.229-0.066-0.343-0.1c-1.868-12.016-12.286-21.243-24.819-21.243h-0.534v-34.739
			c0-98.723-80.318-179.04-179.04-179.04S76.96,93.143,76.96,191.866v34.739h-0.534c-12.531,0-22.947,9.224-24.819,21.238
			C20.65,258.438,0,287.207,0,320.134c0,32.781,20.698,61.688,51.607,72.288c1.871,12.015,12.287,21.24,24.819,21.24h17.102
			c13.851,0,25.119-11.268,25.119-25.119V251.724c0-13.851-11.268-25.119-25.119-25.119h-0.534v-34.739
			C92.994,101.984,166.118,28.86,256,28.86s163.006,73.124,163.006,163.006v34.739h-0.534c-13.851,0-25.119,11.268-25.119,25.119
			v26.722c0,4.427,3.588,8.017,8.017,8.017c4.428,0,8.017-3.589,8.017-8.017v-26.722c0-5.01,4.076-9.086,9.086-9.086h17.102
			c5.01,0,9.086,4.076,9.086,9.086v136.818c0,5.01-4.076,9.086-9.086,9.086h-17.102c-5.01,0-9.086-4.076-9.086-9.086v-76.96
			c0-4.427-3.588-8.017-8.017-8.017c-4.428,0-8.017,3.589-8.017,8.017v76.96c0,13.851,11.268,25.119,25.119,25.119h0.534v9.086
			c0,23.871-19.42,43.29-43.29,43.29h-43.29v-0.534c0-9.136-7.432-16.568-16.568-16.568h-85.511
			c-13.851,0-25.119,11.268-25.119,25.119c0,13.851,11.268,25.119,25.119,25.119h85.511c9.136,0,16.568-7.432,16.568-16.568v-0.534
			h43.29c32.711,0,59.324-26.612,59.324-59.324v-9.086h0.534c12.53,0,22.944-9.221,24.818-21.233
			C491.279,381.831,512,352.846,512,320.134C512,287.645,491.399,258.636,460.736,247.949z M51.307,375.072
			c-21.345-9.728-35.273-31.03-35.273-54.938c0-24.018,13.899-45.24,35.273-54.949V375.072z M93.528,242.639
			c5.01,0,9.086,4.076,9.086,9.086v136.818c0,5.01-4.076,9.086-9.086,9.086H76.426c-5.01,0-9.086-4.076-9.086-9.086V251.724
			c0-5.01,4.076-9.086,9.086-9.086H93.528z M316.393,482.605c0,0.295-0.241,0.534-0.534,0.534h-85.511
			c-5.01,0-9.086-4.076-9.086-9.086c0-5.01,4.076-9.086,9.086-9.086h85.511c0.294,0,0.534,0.239,0.534,0.534V482.605z
			 M460.693,375.066V265.204c21.307,9.744,35.273,31.153,35.273,54.929C495.967,343.989,482.023,365.331,460.693,375.066z"/>
	</g>
</g>
<g>
	<g>
		<path d="M230.347,208.434c4.428,0,8.017-3.589,8.017-8.017v-51.307c0-4.427-3.588-8.017-8.017-8.017h-59.858
			c-4.428,0-8.017,3.589-8.017,8.017s3.588,8.017,8.017,8.017h51.841v35.273h-51.841c-4.428,0-8.017,3.589-8.017,8.017v51.307
			c0,4.427,3.588,8.017,8.017,8.017h59.858c4.428,0,8.017-3.589,8.017-8.017s-3.588-8.017-8.017-8.017h-51.841v-35.273H230.347z"/>
	</g>
</g>
<g>
	<g>
		<path d="M350.063,192.401h-17.637v-43.29c0-4.427-3.588-8.017-8.017-8.017c-4.428,0-8.017,3.589-8.017,8.017v43.29h-43.825v-43.29
			c0-4.427-3.588-8.017-8.017-8.017c-4.428,0-8.017,3.589-8.017,8.017v51.307c0,4.427,3.588,8.017,8.017,8.017h51.841v43.29
			c0,4.427,3.588,8.017,8.017,8.017c4.428,0,8.017-3.589,8.017-8.017v-43.29h17.637c4.428,0,8.017-3.589,8.017-8.017
			S354.491,192.401,350.063,192.401z"/>
	</g>
</g>
<g>
	<g>
		<path d="M256,47.031c-4.428,0-8.017,3.589-8.017,8.017V72.15c0,4.427,3.588,8.017,8.017,8.017c4.428,0,8.017-3.589,8.017-8.017
			V55.048C264.017,50.621,260.428,47.031,256,47.031z"/>
	</g>
</g>
<g>
	<g>
		<path d="M170.971,104.049l-12.095-12.092c-3.13-3.131-8.206-3.13-11.337,0c-3.131,3.131-3.131,8.207,0.001,11.338l12.093,12.092
			c3.259,3.261,8.766,3.04,11.763-0.461C174.083,111.788,173.89,106.967,170.971,104.049z"/>
	</g>
</g>
<g>
	<g>
		<path d="M127.733,192.401H110.63c-4.428,0-8.017,3.589-8.017,8.017s3.588,8.017,8.017,8.017h17.102
			c4.428,0,8.017-3.589,8.017-8.017S132.161,192.401,127.733,192.401z"/>
	</g>
</g>
<g>
	<g>
		<path d="M170.972,285.447c-3.133-3.129-8.209-3.13-11.338,0l-12.093,12.092c-2.919,2.918-3.114,7.74-0.427,10.877
			c2.997,3.501,8.503,3.721,11.763,0.461l12.093-12.092C174.102,293.654,174.102,288.578,170.972,285.447z"/>
	</g>
</g>
<g>
	<g>
		<path d="M256,320.668c-4.428,0-8.017,3.589-8.017,8.017v17.102c0,4.427,3.588,8.017,8.017,8.017c4.428,0,8.017-3.589,8.017-8.017
			v-17.102C264.017,324.257,260.428,320.668,256,320.668z"/>
	</g>
</g>
<g>
	<g>
		<path d="M364.461,297.539l-12.095-12.092c-3.13-3.131-8.206-3.13-11.337,0c-3.131,3.131-3.131,8.207,0.001,11.338l12.093,12.092
			c3.259,3.261,8.766,3.04,11.763-0.461C367.573,305.278,367.38,300.457,364.461,297.539z"/>
	</g>
</g>
<g>
	<g>
		<path d="M401.37,192.401h-17.102c-4.428,0-8.017,3.589-8.017,8.017s3.588,8.017,8.017,8.017h17.102
			c4.428,0,8.017-3.589,8.017-8.017S405.798,192.401,401.37,192.401z"/>
	</g>
</g>
<g>
	<g>
		<path d="M364.462,91.957c-3.131-3.13-8.207-3.131-11.337,0l-12.095,12.092c-2.919,2.918-3.114,7.74-0.426,10.877
			c2.997,3.501,8.503,3.721,11.763,0.461l12.093-12.092C367.591,100.164,367.591,95.088,364.462,91.957z"/>
	</g>
</g>
<g>
</g>
<g>
</g>
<g>
</g>
<g>
</g>
<g>
</g>
<g>
</g>
<g>
</g>
<g>
</g>
<g>
</g>
<g>
</g>
<g>
</g>
<g>
</g>
<g>
</g>
<g>
</g>
<g>
</g>
</svg>
