<?xml version="1.0" encoding="iso-8859-1"?>
<svg version="1.1" xmlns="http://www.w3.org/2000/svg" xmlns:xlink="http://www.w3.org/1999/xlink" x="0px" y="0px"
	 viewBox="0 0 512.001 512.001" style="enable-background:new 0 0 512.001 512.001;" fill="currentColor" xml:space="preserve">
<g>
	<g>
		<path d="M503.983,461.763c-15.379,0-23.505,7.004-30.036,12.633c-5.89,5.076-10.145,8.745-19.567,8.745
			s-13.677-3.668-19.566-8.745c-6.53-5.629-14.656-12.633-30.035-12.633c-15.377,0-23.503,7.005-30.032,12.633
			c-5.889,5.077-10.143,8.745-19.564,8.745c-9.421,0-13.674-3.667-19.564-8.745c-6.529-5.628-14.655-12.633-30.033-12.633
			c-15.377,0-23.503,7.005-30.032,12.634c-5.889,5.076-10.143,8.744-19.563,8.744s-13.674-3.667-19.563-8.745
			c-6.529-5.628-14.653-12.633-30.031-12.633c-15.377,0-23.503,7.005-30.033,12.633c-5.888,5.077-10.144,8.745-19.564,8.745
			c-9.42,0-13.674-3.667-19.562-8.744c-6.529-5.629-14.655-12.634-30.033-12.634s-23.503,7.005-30.033,12.633
			c-5.889,5.077-10.143,8.745-19.564,8.745c-9.42,0-13.674-3.667-19.563-8.745c-6.529-5.628-14.655-12.633-30.032-12.633
			c-4.427,0-8.017,3.589-8.017,8.017c0,4.427,3.589,8.017,8.017,8.017c9.42,0,13.674,3.667,19.563,8.745
			c6.529,5.628,14.655,12.633,30.032,12.633c15.377,0,23.503-7.005,30.033-12.633c5.889-5.077,10.143-8.745,19.564-8.745
			c9.42,0,13.674,3.667,19.563,8.745c6.529,5.629,14.655,12.633,30.032,12.633c15.378,0,23.504-7.005,30.033-12.633
			c5.889-5.077,10.143-8.745,19.564-8.745c9.42,0,13.674,3.667,19.563,8.745c6.529,5.629,14.653,12.633,30.032,12.633
			c15.377,0,23.503-7.005,30.032-12.633c5.889-5.077,10.143-8.745,19.563-8.745c9.42,0,13.675,3.667,19.564,8.745
			c6.529,5.629,14.654,12.633,30.033,12.633s23.503-7.005,30.033-12.633c5.889-5.077,10.143-8.745,19.563-8.745
			c9.422,0,13.678,3.668,19.567,8.745c6.53,5.629,14.657,12.633,30.035,12.633c15.379,0,23.505-7.004,30.035-12.633
			c5.89-5.076,10.145-8.745,19.567-8.745c4.369,0,8.017-3.648,8.017-8.017C512,465.411,508.352,461.763,503.983,461.763z"/>
	</g>
</g>
<g>
	<g>
		<path d="M503.984,412.593c-15.379,0-23.505,7.004-30.036,12.633c-5.89,5.076-10.145,8.745-19.567,8.745
			s-13.677-3.668-19.566-8.745c-6.531-5.629-14.657-12.633-30.036-12.633c-15.377,0-23.503,7.006-30.032,12.633
			c-5.889,5.077-10.143,8.745-19.564,8.745c-9.421,0-13.674-3.667-19.564-8.745c-6.529-5.628-14.655-12.633-30.033-12.633
			c-15.377,0-23.503,7.006-30.032,12.634c-5.889,5.076-10.143,8.744-19.563,8.744s-13.674-3.667-19.563-8.745
			c-6.529-5.628-14.653-12.633-30.031-12.633c-15.377,0-23.503,7.006-30.033,12.633c-5.888,5.077-10.144,8.745-19.564,8.745
			c-9.42,0-13.674-3.667-19.562-8.744c-6.529-5.629-14.655-12.634-30.033-12.634s-23.503,7.006-30.033,12.633
			c-5.889,5.077-10.143,8.745-19.564,8.745c-9.42,0-13.674-3.667-19.563-8.745c-6.529-5.628-14.655-12.633-30.032-12.633
			c-4.427,0-8.017,3.589-8.017,8.017s3.589,8.017,8.017,8.017c9.42,0,13.674,3.667,19.563,8.745
			c6.529,5.628,14.655,12.633,30.032,12.633c15.377,0,23.503-7.006,30.033-12.633c5.889-5.077,10.143-8.745,19.564-8.745
			c9.42,0,13.674,3.667,19.563,8.745c6.529,5.629,14.655,12.633,30.032,12.633c15.378,0,23.504-7.006,30.033-12.633
			c5.889-5.077,10.143-8.745,19.564-8.745c9.42,0,13.674,3.667,19.563,8.745c6.529,5.629,14.653,12.633,30.032,12.633
			c15.377,0,23.503-7.006,30.032-12.633c5.889-5.077,10.143-8.745,19.563-8.745c9.42,0,13.675,3.667,19.564,8.745
			c6.529,5.629,14.654,12.633,30.033,12.633s23.503-7.006,30.033-12.633c5.889-5.077,10.143-8.745,19.563-8.745
			c9.422,0,13.678,3.668,19.567,8.745c6.53,5.629,14.657,12.633,30.035,12.633c15.379,0,23.505-7.005,30.035-12.633
			c5.89-5.076,10.145-8.745,19.567-8.745c4.369,0,8.017-3.648,8.017-8.017S508.353,412.593,503.984,412.593z"/>
	</g>
</g>
<g>
	<g>
		<path d="M315.858,115.441h-42.756c-4.427,0-8.017,3.589-8.017,8.017v25.653c0,4.427,3.589,8.017,8.017,8.017h42.756
			c4.427,0,8.017-3.589,8.017-8.017v-25.653C323.875,119.03,320.285,115.441,315.858,115.441z M307.841,141.094h-26.722v-9.62
			h26.722V141.094z"/>
	</g>
</g>
<g>
	<g>
		<path d="M238.898,115.441h-42.756c-4.427,0-8.017,3.589-8.017,8.017v25.653c0,4.427,3.589,8.017,8.017,8.017h42.756
			c4.427,0,8.017-3.589,8.017-8.017v-25.653C246.914,119.03,243.325,115.441,238.898,115.441z M230.881,141.094h-26.722v-9.62
			h26.722V141.094z"/>
	</g>
</g>
<g>
	<g>
		<path d="M378.412,218.522l-28.884-10.316V97.804c0-4.427-3.589-8.017-8.017-8.017H289.67V20.844c0-4.427-3.589-8.017-8.017-8.017
			h-51.307c-4.427,0-8.017,3.589-8.017,8.017v68.944h-51.841c-4.427,0-8.017,3.589-8.017,8.017v110.402l-28.884,10.316
			c-4.151,1.483-6.326,6.037-4.871,10.198l59.858,171.023c1.126,3.215,4.16,5.368,7.567,5.368h119.716
			c3.407,0,6.441-2.153,7.567-5.368l59.858-171.023C384.739,224.56,382.563,220.004,378.412,218.522z M238.363,28.861h35.273v9.62
			h-35.273V28.861z M238.363,54.514h35.273v9.62h-34.739c-0.181,0-0.357,0.015-0.534,0.027V54.514z M238.363,80.141
			c0.177,0.012,0.354,0.027,0.534,0.027h34.739v9.62h-35.273V80.141z M178.505,105.821h154.99v96.659l-74.799-26.714
			c-1.732-0.612-3.661-0.612-5.393,0l-74.798,26.714V105.821z M310.17,389.078H201.83l-3.988-11.393l58.157-23.263l58.157,23.263
			L310.17,389.078z M319.459,362.536l-60.482-24.192c-1.911-0.765-4.044-0.765-5.955,0l-60.482,24.192l-3.352-9.578L256,328.664
			l66.811,24.295L319.459,362.536z M328.109,337.824l-64.092-23.305v-45.692c0-4.427-3.589-8.017-8.017-8.017
			s-8.017,3.589-8.017,8.017v45.692l-64.092,23.306l-37.409-106.883l101.501-36.252v39.932c0,4.427,3.589,8.017,8.017,8.017
			s8.017-3.589,8.017-8.017v-39.932l101.501,36.25L328.109,337.824z"/>
	</g>
</g>
<g>
	<g>
		<path d="M315.858,235.157c-13.851,0-25.119,11.268-25.119,25.119s11.268,25.119,25.119,25.119
			c13.851,0,25.119-11.268,25.119-25.119S329.709,235.157,315.858,235.157z M315.858,269.362c-5.01,0-9.086-4.076-9.086-9.086
			s4.076-9.086,9.086-9.086c5.01,0,9.086,4.076,9.086,9.086S320.868,269.362,315.858,269.362z"/>
	</g>
</g>
<g>
	<g>
		<path d="M196.142,235.157c-13.851,0-25.119,11.268-25.119,25.119s11.268,25.119,25.119,25.119s25.119-11.268,25.119-25.119
			S209.993,235.157,196.142,235.157z M196.142,269.362c-5.01,0-9.086-4.076-9.086-9.086s4.076-9.086,9.086-9.086
			s9.086,4.076,9.086,9.086S201.152,269.362,196.142,269.362z"/>
	</g>
</g>
<g>
</g>
<g>
</g>
<g>
</g>
<g>
</g>
<g>
</g>
<g>
</g>
<g>
</g>
<g>
</g>
<g>
</g>
<g>
</g>
<g>
</g>
<g>
</g>
<g>
</g>
<g>
</g>
<g>
</g>
</svg>
